<svg width="195" height="195" viewBox="0 0 195 195" fill="none" xmlns="http://www.w3.org/2000/svg">
<path d="M194.146 97.1178C194.265 150.596 151.006 194.047 97.5261 194.166C44.0475 194.286 0.596806 151.027 0.476806 97.5471C0.358139 44.0671 43.6155 0.616455 97.0968 0.497787C150.577 0.37912 194.028 43.6378 194.146 97.1178Z" fill="#F27824"/>
<path d="M70.8517 84.0582C70.8703 91.9555 65.8396 98.3675 59.6183 98.3808C53.397 98.3955 48.3396 92.0048 48.3223 84.1088C48.305 76.2115 53.333 69.7995 59.5556 69.7862C65.777 69.7715 70.8343 76.1622 70.8517 84.0582Z" fill="#3A3A3B"/>
<path d="M146.24 83.8922C146.259 91.7882 141.228 98.2002 135.007 98.2148C128.786 98.2282 123.728 91.8388 123.711 83.9415C123.694 76.0455 128.722 69.6335 134.943 69.6189C141.166 69.6042 146.223 75.9948 146.24 83.8922Z" fill="#3A3A3B"/>
<path d="M73.3721 127.682C71.9227 127.684 70.4774 127.096 69.4268 125.939C67.4561 123.767 67.6187 120.411 69.7894 118.439C84.2654 105.306 98.608 106.018 108.089 108.926C118.099 111.996 124.725 118.13 125.003 118.388C127.144 120.392 127.255 123.752 125.251 125.894C123.249 128.03 119.897 128.142 117.757 126.151C116.881 125.346 97.3268 107.794 76.9268 126.304C75.9121 127.223 74.6414 127.678 73.3721 127.682Z" fill="#3A3A3B"/>
</svg>
