<svg width="194" height="195" viewBox="0 0 194 195" fill="none" xmlns="http://www.w3.org/2000/svg">
<path d="M193.668 97.1178C193.787 150.596 150.53 194.047 97.0496 194.166C43.5696 194.286 0.118905 151.027 0.000238132 97.5471C-0.117095 44.0671 43.1402 0.616455 96.6189 0.497787C150.1 0.37912 193.551 43.6378 193.668 97.1178Z" fill="#E4273C"/>
<path d="M72.8943 127.682C71.4449 127.684 69.9996 127.096 68.9489 125.939C66.9796 123.767 67.1422 120.411 69.3142 118.439C83.7889 105.306 98.1302 106.018 107.613 108.926C117.621 111.996 124.249 118.13 124.526 118.388C126.666 120.392 126.777 123.752 124.774 125.894C122.773 128.03 119.421 128.143 117.28 126.151C116.404 125.344 96.8489 107.795 76.4489 126.304C75.4356 127.223 74.1636 127.679 72.8943 127.682Z" fill="#3A3A3B"/>
<path d="M71.6173 84.0562C71.6346 91.9536 66.6066 98.3642 60.3853 98.3789C54.1626 98.3935 49.1053 92.0029 49.0879 84.1056C49.0693 76.2096 54.0999 69.7976 60.3213 69.7829C66.5426 69.7696 71.5999 76.1589 71.6173 84.0562Z" fill="#3A3A3B"/>
<path d="M78.0894 81.8027C77.3827 81.8054 76.664 81.6641 75.9734 81.3654L40.4547 66.016C37.7627 64.8534 36.5241 61.728 37.6867 59.036C38.8507 56.344 41.9774 55.1067 44.6667 56.268L80.1854 71.6187C82.8774 72.7814 84.1161 75.9067 82.9534 78.5974C82.0881 80.6 80.1387 81.7987 78.0894 81.8027Z" fill="#3A3A3B"/>
<path d="M121.99 83.9435C122.008 91.8408 127.065 98.2301 133.286 98.2168C139.509 98.2021 144.538 91.7901 144.521 83.8941C144.502 75.9968 139.445 69.6075 133.224 69.6208C127.002 69.6355 121.973 76.0475 121.99 83.9435Z" fill="#3A3A3B"/>
<path d="M115.51 81.7187C113.46 81.7227 111.506 80.5321 110.632 78.5348C109.456 75.8494 110.682 72.7188 113.368 71.5428L148.818 56.0361C151.502 54.8601 154.634 56.0854 155.81 58.7721C156.986 61.4601 155.76 64.5895 153.074 65.7641L117.624 81.2721C116.936 81.5734 116.218 81.7161 115.51 81.7187Z" fill="#3A3A3B"/>
</svg>
