<svg width="195" height="195" viewBox="0 0 195 195" fill="none" xmlns="http://www.w3.org/2000/svg">
<path d="M194.621 97.1178C194.741 150.596 151.483 194.047 98.0027 194.166C44.5227 194.286 1.07204 151.027 0.953369 97.5471C0.834702 44.0671 44.0934 0.616455 97.5734 0.497787C151.052 0.37912 194.503 43.6378 194.621 97.1178Z" fill="#FCCB24"/>
<path d="M71.3295 84.0582C71.3469 91.9555 66.3175 98.3675 60.0962 98.3808C53.8749 98.3955 48.8162 92.0048 48.7989 84.1088C48.7815 76.2115 53.8109 69.7995 60.0322 69.7862C66.2535 69.7715 71.3122 76.1622 71.3295 84.0582Z" fill="#3A3A3B"/>
<path d="M146.72 83.8922C146.737 91.7882 141.708 98.2002 135.487 98.2148C129.265 98.2282 124.207 91.8388 124.189 83.9415C124.172 76.0455 129.201 69.6335 135.423 69.6189C141.644 69.6042 146.703 75.9948 146.72 83.8922Z" fill="#3A3A3B"/>
<path d="M122.346 121.078L73.3369 121.186C70.4049 121.192 68.0223 118.82 68.0156 115.888C68.009 112.956 70.3823 110.574 73.3143 110.567L122.324 110.459C125.256 110.452 127.638 112.823 127.645 115.755C127.652 118.688 125.278 121.071 122.346 121.078Z" fill="#3A3A3B"/>
</svg>
