<svg width="195" height="195" viewBox="0 0 195 195" fill="none" xmlns="http://www.w3.org/2000/svg">
<path d="M194.1 97.1178C194.219 150.596 150.96 194.047 97.4812 194.166C43.9999 194.286 0.550551 151.027 0.431884 97.5471C0.313218 44.0671 43.5706 0.616455 97.0506 0.497787C150.531 0.37912 193.981 43.6378 194.1 97.1178Z" fill="#D4E734"/>
<path d="M71.0874 83.5021C71.0874 91.3995 66.0447 97.8008 59.822 97.8008C53.6007 97.8008 48.5566 91.3995 48.5566 83.5021C48.5566 75.6061 53.6007 69.2035 59.822 69.2035C66.0447 69.2035 71.0874 75.6061 71.0874 83.5021Z" fill="#3A3A3B"/>
<path d="M146.478 83.5021C146.478 91.3995 141.435 97.8008 135.214 97.8008C128.991 97.8008 123.947 91.3995 123.947 83.5021C123.947 75.6061 128.991 69.2035 135.214 69.2035C141.435 69.2035 146.478 75.6061 146.478 83.5021Z" fill="#3A3A3B"/>
<path d="M98.2149 127.131C93.9416 127.131 90.0576 126.376 86.7642 125.358C76.7629 122.264 70.1482 116.118 69.8722 115.858C67.7349 113.848 67.6323 110.487 69.6403 108.352C71.6469 106.219 74.9962 106.114 77.1336 108.108C77.9802 108.892 97.5096 126.528 117.966 108.048C120.142 106.084 123.498 106.252 125.464 108.43C127.431 110.606 127.26 113.963 125.084 115.928C115.623 124.475 106.231 127.131 98.2149 127.131Z" fill="#3A3A3B"/>
</svg>
