<svg width="195" height="195" viewBox="0 0 195 195" fill="none" xmlns="http://www.w3.org/2000/svg">
<path d="M194.576 97.1178C194.696 150.596 151.44 194.047 97.9583 194.166C44.4797 194.286 1.02907 151.027 0.910405 97.5471C0.790405 44.0671 44.0504 0.616455 97.529 0.497787C151.009 0.37912 194.456 43.6378 194.576 97.1178Z" fill="#59D828"/>
<path d="M98.1906 127.131C93.9173 127.131 90.0346 126.375 86.74 125.358C76.7386 122.264 70.1239 116.116 69.8466 115.856C67.7119 113.847 67.6093 110.487 69.616 108.351C71.6227 106.219 74.9734 106.114 77.1094 108.108C77.956 108.892 97.4867 126.527 117.943 108.048C120.117 106.083 123.475 106.252 125.441 108.428C127.407 110.604 127.235 113.963 125.06 115.927C115.599 124.474 106.207 127.131 98.1906 127.131Z" fill="#3A3A3B"/>
<path d="M59.8878 98.207L48.0265 84.907C45.0745 81.595 45.0745 76.2284 48.0265 72.9177C50.9785 69.607 55.7664 69.607 58.7184 72.9177L59.8878 74.2298L61.0584 72.9177C64.0104 69.607 68.7971 69.607 71.7505 72.9177C74.7025 76.2284 74.7025 81.595 71.7505 84.907L59.8878 98.207Z" fill="#3A3A3B"/>
<path d="M135.096 98.207L123.234 84.907C120.282 81.595 120.282 76.2284 123.234 72.9177C126.186 69.607 130.974 69.607 133.926 72.9177L135.096 74.2298L136.267 72.9177C139.219 69.607 144.004 69.607 146.957 72.9177C149.909 76.2284 149.909 81.595 146.957 84.907L135.096 98.207Z" fill="#3A3A3B"/>
</svg>
