<svg width="37" height="38" viewBox="0 0 37 38" fill="none" xmlns="http://www.w3.org/2000/svg">
<path d="M2.00857 10.469C3.5792 7.32116 5.98866 4.67497 8.96765 2.82619C11.9466 0.977411 15.3778 -0.00110878 18.8776 9.42839e-07C23.9651 9.42839e-07 28.2389 1.8829 31.5066 4.9495L26.0944 10.3987C24.1368 8.5158 21.6488 7.5563 18.8776 7.5563C13.96 7.5563 9.79745 10.9003 8.31556 15.39C7.93801 16.53 7.72281 17.746 7.72281 19C7.72281 20.254 7.93801 21.47 8.31556 22.61C9.79934 27.1016 13.96 30.4437 18.8776 30.4437C21.4166 30.4437 23.5781 29.7692 25.2695 28.6292C26.2501 27.9794 27.0895 27.1362 27.7372 26.1506C28.3848 25.1651 28.8271 24.0575 29.0374 22.895H18.8776V15.5458H36.6564C36.8792 16.7884 37 18.0842 37 19.4313C37 25.2187 34.9423 30.0903 31.3707 33.3963C28.2484 36.2995 23.9745 38 18.8776 38C16.3982 38.001 13.943 37.5102 11.6523 36.5557C9.36147 35.6013 7.28003 34.2018 5.52689 32.4373C3.77375 30.6727 2.38328 28.5778 1.43495 26.2722C0.486614 23.9665 -0.00099081 21.4954 1.51155e-06 19C1.51155e-06 15.9334 0.728675 13.034 2.00857 10.469Z" fill="#FFE500"/>
</svg>
