<svg width="21" height="22" viewBox="0 0 21 22" fill="none" xmlns="http://www.w3.org/2000/svg">
<path d="M1.14 6.061C2.03144 4.23857 3.39897 2.70656 5.08975 1.63622C6.78053 0.565869 8.72793 -0.000641925 10.7143 5.45854e-07C13.6018 5.45854e-07 16.0275 1.0901 17.8821 2.8655L14.8104 6.0203C13.6993 4.9302 12.2871 4.3747 10.7143 4.3747C7.92322 4.3747 5.56072 6.3107 4.71964 8.91C4.50536 9.57 4.38322 10.274 4.38322 11C4.38322 11.726 4.50536 12.43 4.71964 13.09C5.56179 15.6904 7.92322 17.6253 10.7143 17.6253C12.1554 17.6253 13.3821 17.2348 14.3421 16.5748C14.8987 16.1986 15.3751 15.7104 15.7427 15.1398C16.1103 14.5692 16.3613 13.928 16.4807 13.255H10.7143V9.0002H20.805C20.9314 9.7196 21 10.4698 21 11.2497C21 14.6003 19.8321 17.4207 17.805 19.3347C16.0329 21.0155 13.6071 22 10.7143 22C9.30711 22.0006 7.91361 21.7164 6.61344 21.1639C5.31327 20.6113 4.13191 19.801 3.13689 18.7795C2.14186 17.7579 1.35267 16.545 0.81443 15.2102C0.276186 13.8754 -0.000562351 12.4447 8.57908e-07 11C8.57908e-07 9.2246 0.413572 7.546 1.14 6.061Z" fill="#FFE500"/>
</svg>
