<svg width="5" height="5" viewBox="0 0 5 5" fill="none" xmlns="http://www.w3.org/2000/svg">
<path d="M0.271429 1.3775C0.483676 0.963311 0.809279 0.615128 1.21185 0.371867C1.61441 0.128607 2.07808 -0.000145892 2.55102 1.24058e-07C3.23852 1.24058e-07 3.81607 0.24775 4.25765 0.65125L3.52628 1.36825C3.26173 1.1205 2.92551 0.99425 2.55102 0.99425C1.88648 0.99425 1.32398 1.43425 1.12372 2.025C1.0727 2.175 1.04362 2.335 1.04362 2.5C1.04362 2.665 1.0727 2.825 1.12372 2.975C1.32423 3.566 1.88648 4.00575 2.55102 4.00575C2.89413 4.00575 3.18622 3.917 3.4148 3.767C3.54731 3.6815 3.66075 3.57056 3.74827 3.44087C3.83578 3.31119 3.89556 3.16546 3.92398 3.0125H2.55102V2.0455H4.95357C4.98367 2.209 5 2.3795 5 2.55675C5 3.31825 4.72194 3.95925 4.23929 4.39425C3.81735 4.77625 3.2398 5 2.55102 5C2.21598 5.00013 1.88419 4.93556 1.57463 4.80997C1.26506 4.68438 0.983788 4.50023 0.746878 4.26806C0.509967 4.03589 0.322065 3.76024 0.193912 3.45686C0.0657587 3.15349 -0.000133893 2.82834 2.04264e-07 2.5C2.04264e-07 2.0965 0.0984696 1.715 0.271429 1.3775Z" fill="#FF0037"/>
</svg>
