<svg width="50" height="51" viewBox="0 0 50 51" fill="none" xmlns="http://www.w3.org/2000/svg">
<path d="M2.71429 14.0505C4.83676 9.82577 8.09279 6.2743 12.1185 3.79305C16.1441 1.31179 20.7808 -0.0014881 25.5102 1.26539e-06C32.3852 1.26539e-06 38.1607 2.52705 42.5765 6.64275L35.2628 13.9562C32.6173 11.4291 29.2551 10.1414 25.5102 10.1414C18.8648 10.1414 13.2398 14.6294 11.2372 20.655C10.727 22.185 10.4362 23.817 10.4362 25.5C10.4362 27.183 10.727 28.815 11.2372 30.345C13.2423 36.3732 18.8648 40.8586 25.5102 40.8586C28.9413 40.8586 31.8622 39.9534 34.148 38.4234C35.4731 37.5513 36.6075 36.4197 37.4827 35.0969C38.3578 33.7742 38.9556 32.2877 39.2398 30.7275H25.5102V20.8641H49.5357C49.8367 22.5318 50 24.2709 50 26.0788C50 33.8461 47.2194 40.3843 42.3929 44.8213C38.1735 48.7177 32.398 51 25.5102 51C22.1598 51.0013 18.8419 50.3427 15.7463 49.0617C12.6506 47.7806 9.83788 45.9024 7.46878 43.5342C5.09967 41.166 3.22065 38.3544 1.93912 35.26C0.657587 32.1656 -0.00133893 28.8491 2.04264e-06 25.5C2.04264e-06 21.3843 0.984696 17.493 2.71429 14.0505Z" fill="#FFE500"/>
</svg>
