<svg width="31" height="32" viewBox="0 0 31 32" fill="none" xmlns="http://www.w3.org/2000/svg">
<path d="M1.68286 8.816C2.99879 6.16519 5.01753 3.93682 7.51344 2.37995C10.0093 0.823083 12.8841 -0.00093371 15.8163 7.9397e-07C20.0788 7.9397e-07 23.6596 1.5856 26.3974 4.168L21.8629 8.7568C20.2228 7.1712 18.1382 6.3632 15.8163 6.3632C11.6962 6.3632 8.20868 9.1792 6.96709 12.96C6.65077 13.92 6.47046 14.944 6.47046 16C6.47046 17.056 6.65077 18.08 6.96709 19.04C8.21026 22.8224 11.6962 25.6368 15.8163 25.6368C17.9436 25.6368 19.7546 25.0688 21.1717 24.1088C21.9933 23.5616 22.6966 22.8516 23.2392 22.0216C23.7819 21.1916 24.1525 20.259 24.3287 19.28H15.8163V13.0912H30.7121C30.8988 14.1376 31 15.2288 31 16.3632C31 21.2368 29.276 25.3392 26.2836 28.1232C23.6676 30.568 20.0867 32 15.8163 32C13.7391 32.0008 11.682 31.5876 9.7627 30.7838C7.8434 29.98 6.09949 28.8015 4.63064 27.3156C3.16179 25.8297 1.9968 24.0655 1.20225 22.1239C0.407704 20.1823 -0.000830138 18.1014 1.26644e-06 16C1.26644e-06 13.4176 0.610511 10.976 1.68286 8.816Z" fill="#FFE500"/>
</svg>
