<svg width="32" height="19" viewBox="0 0 32 19" fill="none" xmlns="http://www.w3.org/2000/svg">
<path d="M16 0C11.746 0 7.777 1.15121 5.062 2.99718H0C0.828 3.97672 1.441 5.3097 1.594 6.21653C0.599021 7.59052 0.0625017 9.24844 0.062 10.9506C0.0630603 13.0847 0.903159 15.131 2.39765 16.6398C3.89214 18.1486 5.91873 18.9964 8.032 18.997C10.527 18.997 12.758 17.8134 14.219 15.9998C14.813 16.7016 15.801 18.1134 16 18.5244C16 18.5244 17.137 16.8278 17.781 16.0301C18.82 17.3197 20.2289 18.2529 21.8141 18.7015C23.3994 19.15 25.0834 19.0919 26.6346 18.5352C28.1859 17.9784 29.5285 16.9504 30.4779 15.5921C31.4273 14.2339 31.937 12.6121 31.937 10.9496C31.9362 9.2481 31.4005 7.59078 30.407 6.21653C30.559 5.3097 31.172 3.97571 32 2.99718H26.687C23.974 1.15121 20.25 0 16 0ZM16 1.3562C18.852 1.3562 21.438 1.89748 23.719 2.90327C21.6497 2.97063 19.6874 3.84791 18.247 5.34964C16.8065 6.85138 16.0007 8.85989 16 10.9506C16 6.51241 12.457 2.91135 8.062 2.90226C10.34 1.90151 13.152 1.35722 16 1.35722V1.3562ZM8.031 4.44932C11.574 4.44932 14.437 7.37582 14.437 10.9506C14.4375 11.8003 14.2722 12.6417 13.9504 13.4268C13.6287 14.2119 13.1569 14.9253 12.5619 15.5261C11.9669 16.1269 11.2605 16.6034 10.4831 16.9283C9.70564 17.2532 8.8724 17.4201 8.031 17.4196C7.18945 17.4204 6.356 17.2536 5.57837 16.9287C4.80073 16.6038 4.09418 16.1273 3.49916 15.5263C2.90414 14.9253 2.43233 14.2118 2.11073 13.4264C1.78914 12.6411 1.62408 11.7994 1.625 10.9496C1.625 7.37683 4.488 4.44932 8.031 4.44932ZM23.969 4.44932C27.508 4.44932 30.375 7.37582 30.375 10.9506C30.3755 11.8003 30.2102 12.6417 29.8884 13.4268C29.5667 14.2119 29.0949 14.9253 28.4999 15.5261C27.9049 16.1269 27.1985 16.6034 26.4211 16.9283C25.6436 17.2532 24.8104 17.4201 23.969 17.4196C23.1274 17.4205 22.2938 17.2538 21.5161 16.929C20.7383 16.6042 20.0316 16.1276 19.4365 15.5267C18.8414 14.9257 18.3695 14.2121 18.0478 13.4267C17.7262 12.6413 17.5611 11.7995 17.562 10.9496C17.562 7.37582 20.426 4.44932 23.969 4.44932ZM7.937 7.00521C6.90969 7.00654 5.92484 7.41924 5.19842 8.1528C4.47201 8.88636 4.06332 9.8809 4.062 10.9183C4.06332 11.9557 4.47201 12.9503 5.19842 13.6838C5.92484 14.4174 6.90969 14.8301 7.937 14.8314C8.96431 14.8301 9.94916 14.4174 10.6756 13.6838C11.402 12.9503 11.8107 11.9557 11.812 10.9183C11.8107 9.88107 11.4021 8.88669 10.6759 8.15316C9.94973 7.41963 8.96513 7.00681 7.938 7.00521H7.937ZM23.969 7.00521C22.9417 7.00654 21.9568 7.41924 21.2304 8.1528C20.504 8.88636 20.0953 9.8809 20.094 10.9183C20.094 13.0763 21.832 14.8001 23.969 14.8001C26.105 14.8001 27.844 13.0763 27.844 10.9183C27.8427 9.8809 27.434 8.88636 26.7076 8.1528C25.9812 7.41924 24.9963 7.00654 23.969 7.00521ZM7.937 8.2059C8.6494 8.20697 9.33234 8.49315 9.83618 9.00176C10.34 9.51036 10.6237 10.1999 10.625 10.9193C10.6239 11.6389 10.3404 12.3287 9.83653 12.8375C9.33267 13.3464 8.64958 13.6327 7.937 13.6337C7.2246 13.6324 6.54176 13.346 6.03811 12.8372C5.53446 12.3284 5.25106 11.6387 5.25 10.9193C5.25132 10.1999 5.53498 9.51036 6.03882 9.00176C6.54266 8.49315 7.2256 8.20697 7.938 8.2059H7.937ZM23.969 8.2059C24.6812 8.20723 25.3639 8.49354 25.8675 9.00211C26.3712 9.51069 26.6547 10.2001 26.656 10.9193C26.656 12.4139 25.449 13.6024 23.969 13.6024C22.489 13.6024 21.281 12.4149 21.281 10.9193C21.2823 10.1999 21.566 9.51036 22.0698 9.00176C22.5737 8.49315 23.2566 8.20697 23.969 8.2059ZM7.75 9.59341C7.40251 9.59526 7.06976 9.73541 6.82395 9.98345C6.57814 10.2315 6.4391 10.5674 6.437 10.9183C6.43858 11.2696 6.57738 11.606 6.82325 11.8545C7.06912 12.1029 7.40217 12.2434 7.75 12.2452C8.469 12.2452 9.031 11.6454 9.031 10.9193C9.031 10.1943 8.469 9.59341 7.75 9.59341ZM23.75 9.59341C23.031 9.59341 22.469 10.1922 22.469 10.9183C22.469 11.6444 23.031 12.2129 23.75 12.2129C24.469 12.2129 25.063 11.6444 25.063 10.9183C25.0609 10.5674 24.9219 10.2315 24.6761 9.98345C24.4302 9.73541 24.0975 9.59526 23.75 9.59341Z" fill="#35E0A1"/>
</svg>
