<svg width="53" height="31" viewBox="0 0 53 31" fill="none" xmlns="http://www.w3.org/2000/svg">
<path d="M26.5 0C19.4543 0 12.8807 1.87829 8.38394 4.89014H0C1.37138 6.48833 2.38666 8.66319 2.64006 10.1428C0.992128 12.3845 0.103518 15.0896 0.102687 17.8668C0.104444 21.3487 1.49586 24.6874 3.97111 27.1491C6.44636 29.6108 9.8029 30.9942 13.303 30.995C17.4353 30.995 21.1304 29.064 23.5502 26.1049C24.534 27.25 26.1704 29.5534 26.5 30.224C26.5 30.224 28.3832 27.456 29.4498 26.1543C31.1706 28.2585 33.5041 29.7811 36.1297 30.5129C38.7553 31.2448 41.5443 31.15 44.1136 30.2416C46.6829 29.3332 48.9065 27.6558 50.479 25.4398C52.0515 23.2237 52.8957 20.5777 52.8957 17.8652C52.8944 15.089 52.0071 12.385 50.3616 10.1428C50.6133 8.66319 51.6286 6.48669 53 4.89014H44.2003C39.7069 1.87829 33.5391 0 26.5 0ZM26.5 2.21276C31.2236 2.21276 35.5067 3.09588 39.2846 4.73691C35.8573 4.84682 32.6073 6.27816 30.2215 8.72836C27.8358 11.1786 26.5012 14.4556 26.5 17.8668C26.5 10.6255 20.6319 4.75009 13.3527 4.73526C17.1256 3.10247 21.783 2.2144 26.5 2.2144V2.21276ZM13.3013 7.25942C19.1694 7.25942 23.9113 12.0342 23.9113 17.8668C23.9122 19.2531 23.6383 20.626 23.1054 21.9069C22.5725 23.1879 21.791 24.3517 20.8056 25.332C19.8202 26.3123 18.6503 27.0897 17.3626 27.6198C16.075 28.1499 14.6949 28.4223 13.3013 28.4215C11.9075 28.4228 10.5271 28.1506 9.23917 27.6205C7.95121 27.0905 6.78099 26.3129 5.79548 25.3324C4.80998 24.3519 4.02854 23.1876 3.4959 21.9063C2.96326 20.625 2.68988 19.2517 2.69141 17.8652C2.69141 12.0359 7.43325 7.25942 13.3013 7.25942ZM39.6987 7.25942C45.5601 7.25942 50.3086 12.0342 50.3086 17.8668C50.3095 19.2531 50.0356 20.626 49.5027 21.9069C48.9698 23.1879 48.1884 24.3517 47.203 25.332C46.2176 26.3123 45.0476 27.0897 43.7599 27.6198C42.4723 28.1499 41.0922 28.4223 39.6987 28.4215C38.3047 28.423 36.9241 28.151 35.636 27.621C34.3478 27.091 33.1774 26.3135 32.1917 25.333C31.206 24.3524 30.4245 23.1881 29.8917 21.9067C29.359 20.6252 29.0855 19.2519 29.0871 17.8652C29.0871 12.0342 33.8306 7.25942 39.6987 7.25942ZM13.1457 11.4295C11.4442 11.4317 9.81302 12.1051 8.60989 13.3019C7.40676 14.4988 6.72988 16.1215 6.72769 17.8141C6.72988 19.5067 7.40676 21.1294 8.60989 22.3262C9.81302 23.5231 11.4442 24.1964 13.1457 24.1986C14.8471 24.1964 16.4783 23.5231 17.6814 22.3262C18.8846 21.1294 19.5614 19.5067 19.5636 17.8141C19.5614 16.1218 18.8848 14.4993 17.682 13.3025C16.4792 12.1057 14.8485 11.4322 13.1473 11.4295H13.1457ZM39.6987 11.4295C37.9972 11.4317 36.366 12.1051 35.1629 13.3019C33.9598 14.4988 33.2829 16.1215 33.2807 17.8141C33.2807 21.335 36.1592 24.1475 39.6987 24.1475C43.2364 24.1475 46.1166 21.335 46.1166 17.8141C46.1144 16.1215 45.4376 14.4988 44.2344 13.3019C43.0313 12.1051 41.4001 11.4317 39.6987 11.4295ZM13.1457 13.3886C14.3256 13.3903 15.4567 13.8572 16.2912 14.6871C17.1257 15.5169 17.5955 16.642 17.5977 17.8157C17.5959 18.9898 17.1263 20.1153 16.2918 20.9454C15.4572 21.7756 14.3259 22.2428 13.1457 22.2445C11.9657 22.2424 10.8348 21.775 10.0006 20.9449C9.16645 20.1147 8.69706 18.9895 8.69531 17.8157C8.6975 16.642 9.16731 15.5169 10.0018 14.6871C10.8363 13.8572 11.9674 13.3903 13.1473 13.3886H13.1457ZM39.6987 13.3886C40.8783 13.3907 42.009 13.8579 42.8431 14.6877C43.6772 15.5174 44.1468 16.6422 44.149 17.8157C44.149 20.2542 42.1499 22.1935 39.6987 22.1935C37.2474 22.1935 35.2467 20.2559 35.2467 17.8157C35.2488 16.642 35.7187 15.5169 36.5531 14.6871C37.3876 13.8572 38.5187 13.3903 39.6987 13.3886ZM12.8359 15.6524C12.2604 15.6554 11.7093 15.8841 11.3022 16.2888C10.895 16.6935 10.6648 17.2416 10.6613 17.8141C10.6639 18.3872 10.8938 18.9361 11.301 19.3415C11.7082 19.7469 12.2598 19.976 12.8359 19.9791C14.0268 19.9791 14.9576 19.0004 14.9576 17.8157C14.9576 16.6327 14.0268 15.6524 12.8359 15.6524ZM39.3359 15.6524C38.1451 15.6524 37.2143 16.6294 37.2143 17.8141C37.2143 18.9987 38.1451 19.9263 39.3359 19.9263C40.5268 19.9263 41.5106 18.9987 41.5106 17.8141C41.5071 17.2416 41.2768 16.6935 40.8697 16.2888C40.4626 15.8841 39.9115 15.6554 39.3359 15.6524Z" fill="#35E0A1"/>
</svg>
