<svg width="66" height="39" viewBox="0 0 66 39" fill="none" xmlns="http://www.w3.org/2000/svg">
<path d="M33 0C24.2261 0 16.0401 2.36301 10.4404 6.15211H0C1.70775 8.16274 2.97206 10.8989 3.28762 12.7602C1.23548 15.5805 0.12891 18.9836 0.127875 22.4776C0.130062 26.858 1.86276 31.0583 4.94516 34.1553C8.02755 37.2524 12.2074 38.9927 16.566 38.9938C21.7119 38.9938 26.3134 36.5644 29.3267 32.8417C30.5518 34.2823 32.5896 37.1801 33 38.0237C33 38.0237 35.3451 34.5414 36.6733 32.9038C38.8162 35.551 41.722 37.4665 44.9917 38.3872C48.2613 39.3079 51.7344 39.1887 54.9339 38.0459C58.1335 36.9031 60.9025 34.7928 62.8606 32.0049C64.8188 29.2169 65.8701 25.8881 65.8701 22.4755C65.8685 18.983 64.7635 15.5811 62.7144 12.7602C63.0279 10.8989 64.2922 8.16067 66 6.15211H55.0419C49.4464 2.36301 41.7656 0 33 0ZM33 2.78379C38.8822 2.78379 44.2159 3.89482 48.9204 5.95934C44.6525 6.09762 40.6053 7.89833 37.6344 10.9808C34.6634 14.0634 33.0015 18.1861 33 22.4776C33 13.3676 25.6926 5.97592 16.6279 5.95727C21.3263 3.90311 27.126 2.78586 33 2.78586V2.78379ZM16.5639 9.13282C23.8714 9.13282 29.7763 15.1398 29.7763 22.4776C29.7774 24.2216 29.4364 25.9488 28.7728 27.5603C28.1092 29.1718 27.136 30.6361 25.9089 31.8693C24.6818 33.1025 23.2249 34.0806 21.6214 34.7475C20.0179 35.4144 18.2993 35.7571 16.5639 35.756C14.8282 35.7577 13.1092 35.4153 11.5054 34.7484C9.90151 34.0816 8.44425 33.1034 7.21702 31.8698C5.98978 30.6362 5.01667 29.1715 4.35339 27.5595C3.6901 25.9475 3.34966 24.2199 3.35156 22.4755C3.35156 15.1419 9.2565 9.13282 16.5639 9.13282ZM49.4361 9.13282C56.7352 9.13282 62.6484 15.1398 62.6484 22.4776C62.6495 24.2216 62.3085 25.9488 61.6449 27.5603C60.9813 29.1718 60.0081 30.6361 58.781 31.8693C57.5539 33.1025 56.097 34.0806 54.4935 34.7475C52.89 35.4144 51.1714 35.7571 49.4361 35.756C47.7002 35.7579 45.981 35.4157 44.3769 34.749C42.7728 34.0823 41.3153 33.1041 40.0878 31.8705C38.8604 30.6369 37.8871 29.1721 37.2236 27.56C36.5602 25.9479 36.2197 24.2201 36.2216 22.4755C36.2216 15.1398 42.1286 9.13282 49.4361 9.13282ZM16.3701 14.3791C14.2512 14.3819 12.22 15.229 10.7217 16.7347C9.22351 18.2404 8.3806 20.2818 8.37787 22.4113C8.3806 24.5407 9.22351 26.5821 10.7217 28.0878C12.22 29.5935 14.2512 30.4407 16.3701 30.4434C18.4889 30.4407 20.5201 29.5935 22.0184 28.0878C23.5166 26.5821 24.3595 24.5407 24.3623 22.4113C24.3595 20.2822 23.5169 18.2411 22.0191 16.7354C20.5213 15.2298 18.4906 14.3824 16.3721 14.3791H16.3701ZM49.4361 14.3791C47.3172 14.3819 45.286 15.229 43.7877 16.7347C42.2895 18.2404 41.4466 20.2818 41.4439 22.4113C41.4439 26.8409 45.0285 30.3792 49.4361 30.3792C53.8416 30.3792 57.4282 26.8409 57.4282 22.4113C57.4255 20.2818 56.5826 18.2404 55.0844 16.7347C53.5861 15.229 51.5549 14.3819 49.4361 14.3791ZM16.3701 16.8437C17.8394 16.8459 19.248 17.4333 20.2871 18.4773C21.3263 19.5213 21.9113 20.9367 21.9141 22.4133C21.9119 23.8904 21.3271 25.3063 20.2879 26.3507C19.2486 27.3951 17.8398 27.9829 16.3701 27.9851C14.9007 27.9823 13.4924 27.3944 12.4536 26.35C11.4148 25.3056 10.8303 23.89 10.8281 22.4133C10.8309 20.9367 11.4159 19.5213 12.4551 18.4773C13.4942 17.4333 14.9028 16.8459 16.3721 16.8437H16.3701ZM49.4361 16.8437C50.905 16.8464 52.3131 17.4341 53.3518 18.478C54.3905 19.5219 54.9753 20.937 54.978 22.4133C54.978 25.4811 52.4886 27.9208 49.4361 27.9208C46.3836 27.9208 43.8921 25.4832 43.8921 22.4133C43.8948 20.9367 44.4798 19.5213 45.519 18.4773C46.5582 17.4333 47.9667 16.8459 49.4361 16.8437ZM15.9844 19.6917C15.2677 19.6955 14.5814 19.9832 14.0744 20.4923C13.5674 21.0015 13.2806 21.691 13.2763 22.4113C13.2796 23.1323 13.5659 23.8228 14.073 24.3329C14.5801 24.8429 15.267 25.1311 15.9844 25.1349C17.4673 25.1349 18.6264 23.9037 18.6264 22.4133C18.6264 20.9251 17.4673 19.6917 15.9844 19.6917ZM48.9844 19.6917C47.5014 19.6917 46.3423 20.9209 46.3423 22.4113C46.3423 23.9016 47.5014 25.0686 48.9844 25.0686C50.4673 25.0686 51.6924 23.9016 51.6924 22.4113C51.6881 21.691 51.4013 21.0015 50.8944 20.4923C50.3874 19.9832 49.7011 19.6955 48.9844 19.6917Z" fill="#35E0A1"/>
</svg>
