<svg width="50" height="30" viewBox="0 0 50 30" fill="none" xmlns="http://www.w3.org/2000/svg">
<path d="M25 0C18.3531 0 12.1516 1.8177 7.90937 4.73239H0C1.29375 6.27903 2.25156 8.38373 2.49062 9.81557C0.93597 11.985 0.0976589 14.6028 0.096875 17.2905C0.0985317 20.66 1.41119 23.891 3.74633 26.2733C6.08147 28.6557 9.24802 29.9944 12.55 29.9952C16.4484 29.9952 19.9344 28.1265 22.2172 25.2628C23.1453 26.371 24.6891 28.6 25 29.249C25 29.249 26.7766 26.5703 27.7828 25.3107C29.4062 27.3469 31.6076 28.8204 34.0846 29.5286C36.5616 30.2369 39.1927 30.1451 41.6166 29.2661C44.0405 28.387 46.1382 26.7637 47.6217 24.6191C49.1051 22.4746 49.9016 19.9139 49.9016 17.2889C49.9004 14.6023 49.0633 11.9854 47.5109 9.81557C47.7484 8.38373 48.7062 6.27744 50 4.73239H41.6984C37.4594 1.8177 31.6406 0 25 0ZM25 2.14138C29.4562 2.14138 33.4969 2.99601 37.0609 4.58411C33.8277 4.69048 30.7616 6.07564 28.5109 8.4468C26.2602 10.818 25.0012 13.9893 25 17.2905C25 10.2828 19.4641 4.59686 12.5969 4.58251C16.1563 3.00239 20.55 2.14297 25 2.14297V2.14138ZM12.5484 7.02524C18.0844 7.02524 22.5578 11.646 22.5578 17.2905C22.5586 18.632 22.3003 19.9606 21.7976 21.2003C21.2948 22.4399 20.5576 23.5662 19.628 24.5148C18.6983 25.4635 17.5946 26.2158 16.3798 26.7288C15.1651 27.2419 13.8631 27.5055 12.5484 27.5046C11.2335 27.5059 9.93125 27.2425 8.7162 26.7295C7.50114 26.2166 6.39716 25.4641 5.46744 24.5152C4.53771 23.5663 3.80051 22.4396 3.29802 21.1996C2.79553 19.9596 2.53762 18.6307 2.53906 17.2889C2.53906 11.6476 7.0125 7.02524 12.5484 7.02524ZM37.4516 7.02524C42.9812 7.02524 47.4609 11.646 47.4609 17.2905C47.4618 18.632 47.2034 19.9606 46.7007 21.2003C46.198 22.4399 45.4607 23.5662 44.5311 24.5148C43.6015 25.4635 42.4977 26.2158 41.283 26.7288C40.0682 27.2419 38.7662 27.5055 37.4516 27.5046C36.1365 27.5061 34.8341 27.2429 33.6188 26.73C32.4036 26.2171 31.2994 25.4647 30.3695 24.5158C29.4397 23.5669 28.7023 22.4401 28.1997 21.2C27.6971 19.9599 27.4392 18.6308 27.4406 17.2889C27.4406 11.646 31.9156 7.02524 37.4516 7.02524ZM12.4016 11.0609C10.7964 11.063 9.25756 11.7146 8.12254 12.8728C6.98751 14.0311 6.34894 15.6014 6.34687 17.2394C6.34894 18.8774 6.98751 20.4478 8.12254 21.606C9.25756 22.7643 10.7964 23.4159 12.4016 23.418C14.0067 23.4159 15.5456 22.7643 16.6806 21.606C17.8156 20.4478 18.4542 18.8774 18.4563 17.2394C18.4542 15.6017 17.8158 14.0316 16.6811 12.8734C15.5465 11.7152 14.008 11.0634 12.4031 11.0609H12.4016ZM37.4516 11.0609C35.8464 11.063 34.3076 11.7146 33.1725 12.8728C32.0375 14.0311 31.3989 15.6014 31.3969 17.2394C31.3969 20.6468 34.1125 23.3686 37.4516 23.3686C40.7891 23.3686 43.5062 20.6468 43.5062 17.2394C43.5042 15.6014 42.8656 14.0311 41.7306 12.8728C40.5956 11.7146 39.0567 11.063 37.4516 11.0609ZM12.4016 12.9567C13.5147 12.9584 14.5818 13.4102 15.369 14.2133C16.1563 15.0164 16.5995 16.1051 16.6016 17.241C16.5999 18.3772 16.1569 19.4664 15.3696 20.2698C14.5823 21.0732 13.515 21.5253 12.4016 21.527C11.2884 21.5249 10.2215 21.0726 9.43455 20.2692C8.64759 19.4659 8.20478 18.3769 8.20312 17.241C8.20519 16.1051 8.6484 15.0164 9.43565 14.2133C10.2229 13.4102 11.29 12.9584 12.4031 12.9567H12.4016ZM37.4516 12.9567C38.5644 12.9588 39.6311 13.4109 40.418 14.2139C41.2049 15.0169 41.6479 16.1054 41.65 17.241C41.65 19.6008 39.7641 21.4775 37.4516 21.4775C35.1391 21.4775 33.2516 19.6024 33.2516 17.241C33.2536 16.1051 33.6968 15.0164 34.4841 14.2133C35.2713 13.4102 36.3384 12.9584 37.4516 12.9567ZM12.1094 15.1475C11.5664 15.1504 11.0465 15.3717 10.6624 15.7633C10.2783 16.155 10.0611 16.6854 10.0578 17.2394C10.0603 17.794 10.2772 18.3253 10.6613 18.7176C11.0455 19.1099 11.5659 19.3316 12.1094 19.3346C13.2328 19.3346 14.1109 18.3875 14.1109 17.241C14.1109 16.0962 13.2328 15.1475 12.1094 15.1475ZM37.1094 15.1475C35.9859 15.1475 35.1078 16.093 35.1078 17.2394C35.1078 18.3859 35.9859 19.2835 37.1094 19.2835C38.2328 19.2835 39.1609 18.3859 39.1609 17.2394C39.1577 16.6854 38.9404 16.155 38.5563 15.7633C38.1723 15.3717 37.6523 15.1504 37.1094 15.1475Z" fill="#35E0A1"/>
</svg>
