<svg width="68" height="40" viewBox="0 0 68 40" fill="none" xmlns="http://www.w3.org/2000/svg">
<path d="M34 0C24.9602 0 16.5261 2.4236 10.7567 6.30986H0C1.7595 8.37204 3.06212 11.1783 3.38725 13.0874C1.27292 15.9801 0.132816 19.4704 0.13175 23.0539C0.134003 27.5467 1.91921 31.8547 5.09501 35.0311C8.27081 38.2075 12.5773 39.9925 17.068 39.9936C22.3699 39.9936 27.1108 37.502 30.2154 33.6838C31.4776 35.1613 33.5771 38.1334 34 38.9987C34 38.9987 36.4161 35.427 37.7846 33.7475C39.9925 36.4626 42.9863 38.4272 46.3551 39.3715C49.7238 40.3158 53.3021 40.1935 56.5986 39.0214C59.8951 37.8494 62.748 35.685 64.7655 32.8255C66.783 29.9661 67.8661 26.5519 67.8661 23.0518C67.8645 19.4697 66.7261 15.9806 64.6149 13.0874C64.9379 11.1783 66.2405 8.36992 68 6.30986H56.7099C50.9448 2.4236 43.0312 0 34 0ZM34 2.85517C40.0605 2.85517 45.5558 3.99468 50.4029 6.11214C46.0056 6.25397 41.8358 8.10085 38.7748 11.2624C35.7138 14.424 34.0016 18.6524 34 23.0539C34 13.7103 26.4711 6.12915 17.1318 6.11002C21.9725 4.00319 27.948 2.85729 34 2.85729V2.85517ZM17.0659 9.36699C24.5947 9.36699 30.6786 15.528 30.6786 23.0539C30.6797 24.8427 30.3284 26.6142 29.6447 28.267C28.961 29.9198 27.9583 31.4216 26.694 32.6865C25.4298 33.9513 23.9286 34.9544 22.2766 35.6385C20.6245 36.3225 18.8538 36.674 17.0659 36.6729C15.2776 36.6745 13.5065 36.3233 11.854 35.6394C10.2016 34.9554 8.70014 33.9522 7.43571 32.687C6.17129 31.4218 5.16869 29.9195 4.48531 28.2662C3.80192 26.6129 3.45117 24.8409 3.45312 23.0518C3.45312 15.5302 9.537 9.36699 17.0659 9.36699ZM50.9341 9.36699C58.4545 9.36699 64.5469 15.528 64.5469 23.0539C64.548 24.8427 64.1966 26.6142 63.5129 28.267C62.8292 29.9198 61.8266 31.4216 60.5623 32.6865C59.298 33.9513 57.7969 34.9544 56.1448 35.6385C54.4927 36.3225 52.7221 36.674 50.9341 36.6729C49.1456 36.6748 47.3743 36.3238 45.7216 35.64C44.0689 34.9562 42.5672 33.9529 41.3026 32.6877C40.0379 31.4225 39.0352 29.9201 38.3516 28.2667C37.6681 26.6132 37.3173 24.8411 37.3193 23.0518C37.3193 15.528 43.4053 9.36699 50.9341 9.36699ZM16.8661 14.7478C14.6831 14.7506 12.5903 15.6195 11.0466 17.1638C9.50301 18.7081 8.63456 20.8019 8.63175 22.9859C8.63456 25.1699 9.50301 27.2637 11.0466 28.808C12.5903 30.3524 14.6831 31.2212 16.8661 31.224C19.0492 31.2212 21.142 30.3524 22.6856 28.808C24.2292 27.2637 25.0977 25.1699 25.1005 22.9859C25.0977 20.8023 24.2295 18.7088 22.6864 17.1645C21.1432 15.6203 19.0509 14.7512 16.8682 14.7478H16.8661ZM50.9341 14.7478C48.7511 14.7506 46.6583 15.6195 45.1146 17.1638C43.571 18.7081 42.7026 20.8019 42.6997 22.9859C42.6997 27.5291 46.393 31.1581 50.9341 31.1581C55.4731 31.1581 59.1685 27.5291 59.1685 22.9859C59.1657 20.8019 58.2972 18.7081 56.7536 17.1638C55.21 15.6195 53.1172 14.7506 50.9341 14.7478ZM16.8661 17.2756C18.38 17.2778 19.8312 17.8803 20.9019 18.9511C21.9725 20.0218 22.5753 21.4735 22.5781 22.988C22.5759 24.5029 21.9734 25.9552 20.9026 27.0264C19.8319 28.0976 18.3804 28.7004 16.8661 28.7026C15.3523 28.6998 13.9012 28.0968 12.831 27.0256C11.7607 25.9545 11.1585 24.5026 11.1562 22.988C11.1591 21.4735 11.7618 20.0218 12.8325 18.9511C13.9031 17.8803 15.3544 17.2778 16.8682 17.2756H16.8661ZM50.9341 17.2756C52.4476 17.2784 53.8983 17.8811 54.9685 18.9518C56.0387 20.0225 56.6412 21.4739 56.644 22.988C56.644 26.1345 54.0791 28.6367 50.9341 28.6367C47.7891 28.6367 45.2221 26.1366 45.2221 22.988C45.2249 21.4735 45.8277 20.0218 46.8984 18.9511C47.969 17.8803 49.4203 17.2778 50.9341 17.2756ZM16.4688 20.1966C15.7303 20.2006 15.0232 20.4956 14.5009 21.0178C13.9785 21.54 13.6831 22.2472 13.6786 22.9859C13.682 23.7254 13.9769 24.4337 14.4994 24.9568C15.0219 25.4799 15.7296 25.7755 16.4688 25.7794C17.9966 25.7794 19.1909 24.5166 19.1909 22.988C19.1909 21.4616 17.9966 20.1966 16.4688 20.1966ZM50.4688 20.1966C48.9409 20.1966 47.7466 21.4573 47.7466 22.9859C47.7466 24.5145 48.9409 25.7114 50.4688 25.7114C51.9966 25.7114 53.2589 24.5145 53.2589 22.9859C53.2544 22.2472 52.959 21.54 52.4366 21.0178C51.9143 20.4956 51.2072 20.2006 50.4688 20.1966Z" fill="#35E0A1"/>
</svg>
